<svg width="345" height="160" viewBox="0 0 345 160" fill="none" xmlns="http://www.w3.org/2000/svg">
<rect width="345" height="160" fill="white"/>
<path d="M0 0H345V160H0V0Z" fill="#7F977B" fill-opacity="0.4"/>
<path opacity="0.3" d="M152.727 64.5454L152.545 64.7272V96.3636H193.273C193.341 96.3181 193.409 96.2272 193.454 96.1818V64.7272L193.273 64.5454H152.727ZM157.091 91.8181L165.045 81.5909L170.727 88.4318L178.682 78.1818L188.909 91.8181H157.091Z" fill="#444444" fill-opacity="0.3"/>
<path d="M193.455 60H152.545C150.273 60 148 62.2727 148 64.5455V96.3636C148 98.8636 150.045 100.909 152.545 100.909H193.455C195.727 100.909 198 98.6364 198 96.3636V64.5455C198 62.2727 195.727 60 193.455 60ZM193.455 96.1818C193.409 96.25 193.318 96.3182 193.273 96.3636H152.545V64.7273L152.727 64.5455H193.25C193.318 64.5909 193.386 64.6818 193.432 64.7273V96.1818H193.455ZM170.727 88.4318L165.045 81.5909L157.091 91.8182H188.909L178.682 78.1818L170.727 88.4318Z" fill="white" fill-opacity="0.5"/>
</svg>
