<svg width="255" height="200" viewBox="0 0 255 200" fill="none" xmlns="http://www.w3.org/2000/svg">
<rect width="255" height="200" fill="white"/>
<path d="M0 0H255V200H0V0Z" fill="#7F977B" fill-opacity="0.4"/>
<path opacity="0.3" d="M107.727 84.5454L107.545 84.7272V116.364H148.273C148.341 116.318 148.409 116.227 148.454 116.182V84.7272L148.273 84.5454H107.727ZM112.091 111.818L120.045 101.591L125.727 108.432L133.682 98.1818L143.909 111.818H112.091Z" fill="#444444" fill-opacity="0.3"/>
<path d="M148.455 80H107.545C105.273 80 103 82.2727 103 84.5455V116.364C103 118.864 105.045 120.909 107.545 120.909H148.455C150.727 120.909 153 118.636 153 116.364V84.5455C153 82.2727 150.727 80 148.455 80ZM148.455 116.182C148.409 116.25 148.318 116.318 148.273 116.364H107.545V84.7273L107.727 84.5455H148.25C148.318 84.5909 148.386 84.6818 148.432 84.7273V116.182H148.455ZM125.727 108.432L120.045 101.591L112.091 111.818H143.909L133.682 98.1818L125.727 108.432Z" fill="white" fill-opacity="0.5"/>
</svg>
